<svg xmlns="http://www.w3.org/2000/svg" viewBox="0 0 344 165.43"><title>new balance logo</title><path d="M514.42,487.71,530.34,460l54.09-3.47,1.89-3.39-50-3.47,11.75-20.26h92.73c28.54,0,49.6,10.25,41.4,40.13-2.44,9.15-14,32-48.1,41.55,7.25.87,25.23,8.83,22.08,29.49-5.52,36.67-52.91,54.09-79.32,54.09l-109.52.08L461.9,573.5l57.4-4,2-3.39L459,562.31l-6.7-25.15,88.55-5.2,2-3.31-159-9.94,7.65-13.25,171.26-11.12,2-3.31-50.23-3.31m71.68,5.52,15.77-.08c10.57-.08,21.53-4.89,25.55-14.59,3.71-9.07-1.26-16.8-7.89-16.72h-15.3Zm-18.21,31.46-19,33H567c8.44,0,23.5-4.18,28.15-16.16,4.34-11.2-3.63-16.87-9.15-16.87Zm-138.15,51-11,18.85-78.69.16,7.65-13.25Zm5.52-146.43,63.32.08,4.81,17.9-75.62-4.73Zm71.68,32.17,6.94,26.26-108.1-7.1,7.57-13.17Zm-55,75.7L438.17,561l-76.25-4.34,7.65-13.25Z" transform="translate(-340 -429.29)" style="fill:#cf0a2c"/></svg>